<?xml version="1.0" standalone="no"?>
<!DOCTYPE svg PUBLIC "-//W3C//DTD SVG 20010904//EN"
 "http://www.w3.org/TR/2001/REC-SVG-20010904/DTD/svg10.dtd">
<svg version="1.0" xmlns="http://www.w3.org/2000/svg"
 width="512.000000pt" height="512.000000pt" viewBox="0 0 512.000000 512.000000"
 preserveAspectRatio="xMidYMid meet">
<metadata>
Created by potrace 1.14, written by Peter Selinger 2001-2017
</metadata>
<g transform="translate(0.000000,512.000000) scale(0.100000,-0.100000)"
fill="#000000" stroke="none">
<path d="M1325 4030 c-79 -65 -227 -221 -297 -314 -204 -272 -335 -596 -375
-926 -10 -81 -10 -365 -1 -445 19 -155 62 -335 113 -465 37 -96 115 -258 145
-300 11 -16 20 -31 20 -34 0 -9 97 -143 148 -206 53 -65 227 -238 269 -268
l29 -21 113 113 112 112 -63 54 c-77 66 -163 153 -215 217 -21 26 -40 50 -43
53 -12 10 -98 147 -128 201 -58 105 -137 319 -156 423 -2 11 -7 39 -11 61 -4
22 -10 49 -12 60 -3 11 -6 92 -8 180 -3 184 6 273 45 427 54 212 144 397 279
577 62 83 218 243 275 281 20 14 36 27 36 30 0 3 -51 56 -113 118 l-112 112
-50 -40z"/>
<path d="M3631 3956 l-112 -112 63 -54 c97 -82 288 -290 288 -313 0 -4 8 -16
18 -27 49 -58 141 -245 187 -385 56 -167 78 -298 79 -475 1 -142 -8 -292 -18
-309 -2 -3 -7 -27 -11 -51 -10 -68 -81 -274 -127 -370 -97 -198 -236 -375
-416 -530 l-63 -54 112 -113 113 -112 45 36 c59 47 194 183 253 253 61 74 176
248 221 336 91 176 159 386 193 589 30 181 25 483 -11 655 -3 14 -10 45 -15
70 -50 244 -194 543 -369 765 -60 77 -238 258 -287 292 l-30 22 -113 -113z"/>
<path d="M1770 3567 c-209 -164 -373 -410 -444 -667 -15 -54 -19 -72 -36 -175
-15 -89 -5 -321 18 -431 63 -293 232 -563 470 -746 l53 -42 115 115 115 115
-69 52 c-75 55 -173 155 -220 225 -74 107 -142 276 -161 402 -16 107 -6 289
22 390 61 217 192 409 365 533 l64 45 -113 113 c-63 63 -116 114 -119 114 -3
0 -30 -19 -60 -43z"/>
<path d="M3170 3494 c-69 -70 -110 -118 -102 -121 30 -11 135 -98 192 -160
174 -185 254 -394 254 -658 0 -114 -4 -156 -23 -225 -59 -221 -185 -410 -362
-542 l-70 -52 115 -115 115 -114 38 29 c115 87 236 217 309 330 90 141 161
327 187 491 24 146 14 401 -18 503 -3 10 -8 27 -10 37 -2 10 -17 56 -34 104
-53 148 -162 325 -272 439 -48 49 -188 170 -198 170 -4 0 -58 -52 -121 -116z"/>
<path d="M2395 3176 c-118 -32 -199 -79 -285 -166 -123 -124 -180 -254 -185
-425 -4 -126 12 -202 66 -313 72 -149 207 -263 379 -323 84 -28 237 -35 330
-13 228 53 416 233 478 459 23 86 26 221 6 301 -8 33 -16 64 -17 70 -2 7 -20
46 -41 89 -28 56 -58 97 -114 153 -96 96 -178 142 -322 179 -8 2 -60 6 -115 8
-81 3 -116 -1 -180 -19z"/>
</g>
</svg>
