<?xml version="1.0" encoding="UTF-8"?>
<svg width="680px" height="227px" viewBox="0 0 680 227" version="1.1" xmlns="http://www.w3.org/2000/svg" xmlns:xlink="http://www.w3.org/1999/xlink">
    <title>1020 Rectangle Logo</title>
    <defs>
        <polygon id="path-1" points="0.310205917 0 0.689794083 0 0.689794083 88.56 0.310205917 88.56"></polygon>
        <polygon id="path-3" points="0 226.769 680.136 226.769 680.136 0 0 0"></polygon>
    </defs>
    <g id="1020-Rectangle-Logo" stroke="none" stroke-width="1" fill="none" fill-rule="evenodd">
        <rect fill="#111111" x="0" y="0" width="680" height="227"></rect>
        <rect id="Rectangle" stroke="#979797" fill="#D8D8D8" x="236.5" y="13.5" width="429" height="199"></rect>
        <g id="Group-3" transform="translate(679.446206, 138.209000)">
            <mask id="mask-2" fill="white">
                <use xlink:href="#path-1"></use>
            </mask>
            <g id="Clip-2"></g>
            <path d="M0.690194083,88.56 C0.713194083,71.698 0.739194083,54.836 0.760194083,37.975 C0.775194083,25.748 0.782194083,13.521 0.800194083,1.294 C0.801194083,0.862 0.885194083,0.431 0.930194083,0 C0.930194083,29.16 0.931194083,58.32 0.920194083,87.48 C0.920194083,87.84 0.770194083,88.2 0.690194083,88.56" id="Fill-1" fill="#000000" mask="url(#mask-2)"></path>
        </g>
        <mask id="mask-4" fill="white">
            <use xlink:href="#path-3"></use>
        </mask>
        <g id="Clip-5"></g>
        <path d="M542.916,205.149 L555.277,205.149 L555.277,120.511 L542.916,120.511 L542.916,205.149 Z M317.68,106.509 L317.68,21.868 L305.173,21.868 L305.173,33.367 L288.524,33.367 L288.524,45.859 L305.255,45.859 L305.255,106.509 L317.68,106.509 Z M318.197,120.507 L243.15,120.507 L243.15,205.146 L255.239,205.146 L255.239,169.139 L306.137,169.139 L306.137,205.113 L318.17,205.113 L318.17,168.714 L306.279,168.714 L306.279,156.844 L318.197,156.844 L318.197,120.507 Z M438.478,106.709 L510.153,106.709 L510.153,94.238 L451.064,94.238 L451.064,69.296 L507.758,69.296 L507.758,21.869 L438.28,21.869 L438.28,34.34 L495.209,34.34 L495.209,56.882 L438.478,56.882 L438.478,106.709 Z M420.189,120.511 L337.243,120.511 L337.243,204.855 L349.896,204.855 L349.896,169.259 L407.541,169.259 L407.541,204.848 L420.189,204.848 L420.189,120.511 Z M349.169,34.243 L336.758,34.243 L336.758,106.469 L419.438,106.469 L419.438,21.867 L349.126,21.867 L349.126,34.286 L349.169,34.243 Z M541.649,34.483 L529.238,34.483 L529.238,106.708 L611.918,106.708 L611.918,22.107 L541.606,22.107 L541.606,34.526 L541.649,34.483 Z M586.77,132.883 L574.358,132.883 L574.358,205.109 L657.038,205.109 L657.038,120.507 L586.726,120.507 L586.726,132.926 L586.77,132.883 Z M511.166,133.182 L511.166,120.506 L439.234,120.506 L439.234,204.866 L511.166,204.866 C511.166,200.586 511.166,196.393 511.166,192.201 L523.831,192.201 L523.831,133.182 L511.166,133.182 Z M226.877,217.641 L671.148,217.641 L671.148,9.072 L226.877,9.072 L226.877,217.641 Z" id="Fill-4" fill="#111111" mask="url(#mask-4)"></path>
        <path d="M99.539,58.0535 L99.539,45.8435 L173.426,45.8435 L173.426,181.2415 L87.303,181.2415 L87.303,58.0135 C91.45,58.0135 95.515,58.0135 99.581,58.0135 C99.57,58.4535 99.551,58.8935 99.551,59.3325 C99.549,95.4065 99.549,131.4805 99.552,167.5545 C99.552,167.9785 99.599,168.4025 99.626,168.8725 L161.049,168.8725 L161.049,58.0535 L99.539,58.0535 Z" id="Fill-6" fill="#DDDDDD" mask="url(#mask-4)"></path>
        <polygon id="Fill-7" fill="#DDDDDD" mask="url(#mask-4)" points="62.5088 181.2126 62.5088 70.3866 50.2898 70.3866 50.2898 58.0486 62.5088 58.0486 62.5088 45.8346 74.8048 45.8346 74.8048 181.2126"></polygon>
        <polygon id="Fill-8" fill="#DDDDDD" mask="url(#mask-4)" points="204.3466 21.161 179.7916 21.161 179.7916 9.184 216.5476 9.184 216.5476 45.849 204.3466 45.849"></polygon>
        <polygon id="Fill-9" fill="#DDDDDD" mask="url(#mask-4)" points="179.7995 205.9746 204.2155 205.9746 204.2155 181.4756 216.5685 181.4756 216.5685 217.6106 179.7995 217.6106"></polygon>
        <polygon id="Fill-10" fill="#DDDDDD" mask="url(#mask-4)" points="9.0359 9.1833 43.9359 9.1833 43.9359 21.1713 19.3759 21.1713 19.3759 45.8283 9.0359 45.8283"></polygon>
        <polygon id="Fill-11" fill="#DDDDDD" mask="url(#mask-4)" points="43.9167 217.6551 8.8847 217.6551 8.8847 181.4701 19.3347 181.4701 19.3347 205.9001 43.9167 205.9001"></polygon>
        <polygon id="Fill-12" fill="#111111" mask="url(#mask-4)" points="349.962 156.594 407.429 156.594 407.429 133.071 349.962 133.071"></polygon>
        <path d="M405.2598,34.3149 C405.7758,34.3149 406.2918,34.3149 406.8988,34.3149 L406.8988,93.9599 L349.1708,93.9599 C349.1708,74.0329 349.1708,54.1389 349.1698,34.2429 C349.1688,34.2429 349.1258,34.2859 349.1258,34.2859 C367.8368,34.2959 386.5488,34.3049 405.2598,34.3149 Z" id="Fill-13" fill="#111111" mask="url(#mask-4)"></path>
        <path d="M597.7399,34.555 C598.2559,34.555 598.7729,34.555 599.3789,34.555 L599.3789,94.2 L541.6509,94.2 C541.6509,74.273 541.6509,54.379 541.6499,34.483 C541.6499,34.483 541.6059,34.526 541.6059,34.526 C560.3169,34.536 579.0289,34.545 597.7399,34.555 Z" id="Fill-14" fill="#111111" mask="url(#mask-4)"></path>
        <path d="M642.8603,134.9548 C643.3763,134.9548 643.8923,134.9548 644.4993,134.9548 L644.4993,194.6008 L586.7713,194.6008 C586.7713,174.6728 586.7713,154.7788 586.7703,134.8828 C586.7703,134.8828 586.7263,134.9258 586.7263,134.9258 C605.4373,134.9358 624.1493,134.9448 642.8603,134.9548 Z" id="Fill-15" fill="#111111" mask="url(#mask-4)"></path>
        <polygon id="Fill-16" fill="#111111" mask="url(#mask-4)" points="255.308 156.711 306.026 156.711 306.026 132.774 255.308 132.774"></polygon>
        <path d="M511.1887,133.1574 C511.1737,142.0634 511.1457,150.9684 511.1467,159.8744 C511.1477,170.6574 511.1737,181.4404 511.1887,192.2224 C510.6717,192.1934 510.1557,192.1384 509.6397,192.1384 C490.9627,192.1344 472.2857,192.1344 453.6087,192.1344 C453.0987,192.1344 452.5887,192.1344 452.0067,192.1344 L452.0067,133.1574 L511.1887,133.1574 Z" id="Fill-17" fill="#111111" mask="url(#mask-4)"></path>
        <polygon id="Stroke-18" mask="url(#mask-4)" points="0 221.769 680.136 221.769 680.136 -5 0 -5"></polygon>
    </g>
</svg>