<?xml version="1.0" encoding="UTF-8"?>
<svg width="184px" height="105px" viewBox="0 0 184 105" version="1.1" xmlns="http://www.w3.org/2000/svg" xmlns:xlink="http://www.w3.org/1999/xlink">
    <!-- Generator: Sketch 55.2 (78181) - https://sketchapp.com -->
    <title>Group</title>
    <desc>Created with Sketch.</desc>
    <g id="Page-1" stroke="none" stroke-width="1" fill="none" fill-rule="evenodd">
        <g id="LOGO_noir-sur-blanc" transform="translate(-50.000000, -90.000000)" fill="#000000">
            <g id="Group" transform="translate(50.640000, 90.172000)">
                <path d="M177.773,33.233 L182.546,4.59 L20.341,0 L18.003,33.268 L24.607,33.233 L24.607,10.832 L31.378,10.832 L31.378,24.285 L43.864,10.832 L52.041,10.832 L39.511,23.889 L46.42,33.233 L57.008,33.233 L57.008,10.832 L63.779,10.832 L63.779,33.233 L71.684,33.233 C70.677,31.139 70.109,28.795 70.109,26.307 L70.109,26.219 C70.109,17.471 77.012,10.305 86.508,10.305 C96.004,10.305 102.818,17.383 102.818,26.131 L102.818,26.219 C102.818,28.735 102.232,31.111 101.192,33.233 L109.759,33.233 L110.512,32.33 C110.899,32.649 111.289,32.948 111.682,33.233 L124.133,33.233 C124.133,33.209 124.141,33.189 124.141,33.166 L124.141,33.078 C124.141,31.363 123.086,30.484 117.942,29.165 C111.743,27.582 107.742,25.868 107.742,19.757 L107.742,19.669 C107.742,14.085 112.227,10.392 118.513,10.392 C122.998,10.392 126.822,11.799 129.944,14.305 L126.427,19.405 C123.701,17.515 121.019,16.371 118.425,16.371 C115.832,16.371 114.469,17.558 114.469,19.053 L114.469,19.141 C114.469,21.163 115.788,21.823 121.107,23.186 C127.35,24.812 130.867,27.055 130.867,32.418 L130.867,32.506 C130.867,32.755 130.847,32.992 130.832,33.233 L136.758,33.233 L136.758,10.832 L143.529,10.832 L143.529,24.285 L156.014,10.832 L164.191,10.832 L151.662,23.889 L158.571,33.233 L177.773,33.233 Z M34.939,28.505 L31.378,32.198 L31.378,33.233 L38.381,33.233 L34.939,28.505 Z M80.009,33.233 L93.008,33.233 C94.729,31.485 95.74,29.027 95.74,26.307 L95.74,26.219 C95.74,20.944 91.871,16.547 86.42,16.547 C80.968,16.547 77.188,20.856 77.188,26.131 L77.188,26.219 C77.188,28.962 78.24,31.459 80.009,33.233 Z M147.09,28.505 L143.529,32.198 L143.529,33.233 L150.532,33.233 L147.09,28.505 L147.09,28.505 Z" id="Fill-1"></path>
                <path d="M180.963,78.492 L178.115,54.121 L2.142,59.818 L2.142,78.492 L19.55,78.492 L19.55,60.821 L33.618,60.821 C37.531,60.821 40.564,61.92 42.587,63.942 C44.301,65.657 45.224,68.075 45.224,70.976 L45.224,71.064 C45.224,74.323 44.055,76.772 42.157,78.492 L54.273,78.492 L61.886,60.601 L68.129,60.601 L75.742,78.492 L86.066,78.492 L86.066,60.821 L98.068,60.821 C107.74,60.821 114.422,67.459 114.422,76.12 L114.422,76.208 C114.422,76.988 114.35,77.746 114.244,78.492 L120.753,78.492 L120.753,60.821 L127.523,60.821 L127.523,78.492 L134.018,78.492 C133.921,77.772 133.854,77.043 133.854,76.296 L133.854,76.208 C133.854,67.459 140.756,60.293 150.252,60.293 C159.748,60.293 166.563,67.371 166.563,76.12 L166.563,76.208 C166.563,76.985 166.49,77.743 166.384,78.492 L180.963,78.492 Z M33.178,75.768 C36.476,75.768 38.366,74.01 38.366,71.416 L38.366,71.328 C38.366,68.426 36.344,66.932 33.046,66.932 L26.32,66.932 L26.32,75.768 L33.178,75.768 Z M64.92,68.734 L60.922,78.492 L68.917,78.492 L64.92,68.734 Z M92.836,78.492 L107.118,78.492 C107.262,77.796 107.344,77.065 107.344,76.296 L107.344,76.208 C107.344,70.756 103.607,66.932 98.068,66.932 L92.836,66.932 L92.836,78.492 Z M141.192,78.492 L159.249,78.492 C159.399,77.785 159.485,77.052 159.485,76.296 L159.485,76.208 C159.485,70.932 155.616,66.536 150.164,66.536 C144.713,66.536 140.932,70.844 140.932,76.12 L140.932,76.208 C140.932,76.994 141.028,77.756 141.192,78.492 L141.192,78.492 Z" id="Fill-2"></path>
                <path d="M172.134,101.146 L178.794,82.269 L162.479,81.985 C160.873,89.151 154.475,94.489 146.197,94.344 C137.887,94.199 131.725,88.668 130.42,81.425 L123.78,81.309 L123.569,93.422 L116.799,93.304 L117.011,81.191 L110.343,81.075 C108.762,88.072 102.528,93.054 94.118,92.908 L82.117,92.698 L82.329,80.586 L72.428,80.413 L77.37,92.615 L70.293,92.492 L67.601,85.541 L54.589,85.314 L51.656,92.166 L44.754,92.046 L50.12,80.023 L37.123,79.797 C36.429,80.224 35.688,80.598 34.88,80.881 L42.205,92.002 L34.293,91.863 L27.871,81.902 L22.553,81.809 L22.381,91.655 L15.611,91.537 L15.823,79.425 L-1.42108547e-14,79.149 L1.937,104.19 L172.134,101.146 Z M155.239,81.858 L137.721,81.553 C138.887,85.274 142.127,88.03 146.394,88.104 C150.69,88.179 153.986,85.554 155.239,81.858 Z M103.118,80.949 L89.098,80.704 L88.993,86.706 L94.224,86.798 C98.599,86.874 101.881,84.594 103.118,80.949 L103.118,80.949 Z" id="Fill-3"></path>
                <path d="M171.469,55.704 L168.304,34.182 L154.374,34.182 L162.389,45.022 L154.256,45.022 L146.363,34.182 L142.535,34.182 L141.155,35.613 L141.155,45.022 L134.384,45.022 L134.384,34.182 L128.349,34.182 C128.434,34.701 128.493,35.241 128.493,35.833 L128.493,35.921 C128.493,42.032 123.833,45.461 117.195,45.461 C112.535,45.461 107.831,43.834 104.138,40.537 L108.138,35.745 C110.908,38.031 113.81,39.482 117.327,39.482 C120.096,39.482 121.767,38.383 121.767,36.581 L121.767,36.493 C121.767,35.536 121.436,34.84 120.253,34.182 L99.788,34.182 C97.861,40.734 91.828,45.549 84.046,45.549 C76.233,45.549 70.245,40.753 68.365,34.182 L61.405,34.182 L61.405,45.022 L54.635,45.022 L54.635,34.182 L42.223,34.182 L50.239,45.022 L42.105,45.022 L34.212,34.182 L30.384,34.182 L29.004,35.613 L29.004,45.022 L22.234,45.022 L22.234,34.182 L12.587,34.182 L19.55,55.704 L171.469,55.704 Z M92.367,34.182 L75.863,34.182 C77.366,37.213 80.373,39.306 84.134,39.306 C87.923,39.306 90.901,37.223 92.367,34.182 L92.367,34.182 Z" id="Fill-4"></path>
            </g>
        </g>
    </g>
</svg>