<svg xmlns="http://www.w3.org/2000/svg" viewBox="466.299 453.543 751.181 283.465"><path fill="#010101" d="M1135.755 542.013c24.139 2.188 48.725-2.686 70.916.676 2.095.315 5.605.674 6.756 3.376-23.662 3.459-50.177 4.192-75.644 2.701 1.452 19.984 2.31 46.483-.682 70.241 25.452.521 56.76-1.487 79.696 4.728-11.257 3.644-26.741 1.518-40.519 2.029-12.663.463-25.724 1.209-38.503.674-3.854 10.701-6.075 21.963-11.483 31.74-2.44 4.418-7.754 8.829-11.483 13.512-9.702 12.174-16.949 19.26-32.412 27.014-30.011 15.038-67.157 27.584-110.094 32.421-4.682.526-9.569.409-14.181 1.347-8.802 1.789-19.207 5.365-31.065 2.023-7.76-11.931-5.692-38.188-7.431-58.076-1.436-16.467-3.376-32.787-4.052-49.979-21.566 1.355-46.044.828-64.158 0 1.201 35.373 8.653 73.605 10.128 108.737-19.994 2.631-40.292-3.255-61.458 1.349-9.234-11.623-17.207-22.606-26.34-35.799-3.197-4.609-8.195-8.494-10.131-12.832-3.979-8.904-2.873-19.815-6.077-31.064-8.578 20.461-11.736 46.352-19.587 67.537-1.182 3.79 2.679 4.932.676 7.432-11.775-.088-26.476 1.802-43.224.673-14.818-21.206-27.342-44.7-35.12-72.938-9.82 21.245-13.83 48.308-22.289 70.916-23.54 2.323-46.874 6.207-70.238.675-8.285-16.335-23.346-30.626-23.639-52.677-.202-15.294 9.111-32.076 8.105-49.979-25.022-2.059-50.886.889-76.994 0-2.262-1.566-4.221-3.437-6.753-4.728 11.955-3.076 27.136-2.534 40.522-2.703 14.273-.183 29.168.132 43.9 0 5.309-23.312 10.464-47.96 14.182-70.916-32.556-1.217-70.921 5.117-98.604-4.729 1.813-2.239 4.577-3.527 6.753-5.403 31.349-.333 66.439 1.449 93.878.676 4.221-16.373 10.554-34.001 14.858-51.329 2.664-10.727 1.606-22.396 8.105-31.066 20.779-2.488 49.444-4.973 68.887-.676 10.931 18.112 26.816 31.266 37.822 49.303 7.883-13.733 9.276-33.95 18.911-45.927 21.127-2.188 55.913-4.289 77.669-1.351 11.02 13.677 20.074 28.979 31.065 43.901 7.896 10.719 13.53 21.087 15.534 38.495 20.234-.161 45.577-1.819 69.563 0-.835-11.75-5.299-24.271 3.379-36.469 3.561-5.012 10.229-10.217 15.534-16.21 10.928-12.337 21.655-26.182 34.443-35.795 17.383-.92 40.73-.671 60.788 2.026 13.646 1.839 25.327 6.556 37.141 10.131 14.238 4.307 26.258 5.995 36.473 13.506 17.499 12.874 28.243 33.717 35.793 54.031-.504 3.663.844 5.468.684 8.776zm-182.35 155.335c2.411-4.009 6.229-8.714 6.757-12.149.731-4.808-1.15-12.269-1.349-18.914-.704-23.187-1.649-42.593-2.022-61.454-.206-9.851 1.992-21.297 1.348-30.397-2.587-36.099.169-70.584 1.35-104.683-.036-.414-.104-.799-.682-.676-14.774 14.494-28.09 30.437-41.866 45.924 6.36 37.549 4.588 82.949 6.75 124.271 1.574 30.062 5.041 59.809 5.399 89.824 7.988-9.366 17.463-20.301 24.315-31.746zM688.658 536.61c1.637-9.62 5.892-16.622 8.781-24.989-9.95-12.563-20.879-24.148-31.743-35.794 7.197 20.718 13.309 42.522 22.962 60.783zm121.569 20.262c.66 5.718 3.283 11.733 4.054 17.565 1.598 12.145.306 24.552 2.024 36.474 3.542 24.549 7.839 48.153 11.481 70.907 9.481 9.433 15.04 22.783 23.639 33.097-10.78-59.888-13.973-128.627-22.287-191.811-8.581-9.653-16.515-19.957-24.313-30.393-.414.039-.801.103-.676.676 2.735 20.193 3.662 42.559 6.078 63.485zm202.61-11.482c21.744 3.927 39.287 12.044 52.009 24.99-3.048-28.388-27.466-34.542-50.652-41.198-1.048 5.417 1.259 11.535-1.357 16.208zm-170.193 4.728c2.389 22.824 4.249 46.179 7.434 68.216 20.637-.479 45.392.359 64.833.674-.081-21.391-1.048-47.511-2.704-69.566-23.804.695-46.133.957-69.563.676zm200.583 49.976c11.508-5.854 26.385-16.636 16.212-28.368-8.384-9.666-30.42-19.853-45.252-21.611-1.057 17.454-3.07 36.671-2.704 58.758 11.343-1.869 21.705-3.664 31.744-8.779zm-324.851 85.103c5.979 10.003 9.328 22.637 16.209 31.738 2.689-12.408 6.051-24.33 9.455-37.147 3.146-11.843 9.218-24.242 10.131-36.465.795-10.654-4.324-23.905-6.079-36.474-1.614-11.535-2.483-24.931-5.402-33.095-8.642 36.613-18.146 72.362-24.314 111.443zm-99.28-20.937c-.601 5.395-2.458 14.049-1.352 18.908.716 3.143 4.474 6.17 6.079 9.461 4.052 8.294 6.566 18.717 12.158 25.663 2.407-14.577 6.91-24.668 10.805-37.147 3.17-10.149 5.617-20.541 10.806-29.041-5.058-24.879-14.528-45.355-17.561-72.265-.141-.756-.75-1.049-1.35-1.35-5.045 24.449-16.58 58.788-19.585 85.771zm348.496 27.011c-10.091 11.748-18.811 24.871-27.692 37.821 33.614-1.883 63.998-12.7 90.496-20.263 33.065-9.425 60.021-20.996 80.37-42.548 8.099-14.194 20.895-23.687 19.589-47.275-.036-.409-.098-.798-.676-.681-27.825 50.275-92.101 67.027-162.087 72.946zm-196.537-4.725c4.422 5.628 9.159 13.197 14.858 20.937 2.625 3.562 12.112 19.729 16.208 20.938 5.271 1.547 17.745-.41 27.017 0 9.199.403 16.036-.183 22.961 1.349-4.023-7.613-10.113-13.638-14.857-20.937-4.741-7.307-8.786-15.279-14.858-21.611-21.287.335-32.872-.999-51.329-.676zm-214.77 1.349c3.802 15.11 12.667 25.157 17.561 39.177 20.028.221 39.659.038 58.083-1.354-7.393-11.294-13.759-23.611-18.911-37.141-20.905 2.086-39.776-2.413-56.733-.682zm120.893 0c6.828 13.888 13.735 27.687 22.288 39.853 11.277-1.21 21.772-.69 32.417-1.35-6.588-12.772-13.63-25.093-19.584-38.503-13.704-1.386-19.224.366-35.121 0z"/></svg>