<svg xmlns="http://www.w3.org/2000/svg" viewBox="0 0 305.06 460.36"><defs><style>.a{fill:#010101;}.b{fill:#fff;}</style></defs><title>Black_logo</title><rect class="a" width="304" height="304"/><path class="a" d="M320.07,526.74l-18.28-24.5h-18v24.5h-7.11v-63h27.11a30.59,30.59,0,0,1,9.41,1.35,21.24,21.24,0,0,1,7.16,3.83,17,17,0,0,1,4.59,5.94,18,18,0,0,1,1.62,7.71,18.68,18.68,0,0,1-1.26,7.07,16,16,0,0,1-3.56,5.41,19.93,19.93,0,0,1-5.44,3.83,25.5,25.5,0,0,1-6.85,2.16l19.36,25.74Zm-4.88-53.17c-2.82-2.2-6.8-3.3-11.91-3.3H283.77v25.67h19.42a22.1,22.1,0,0,0,6.5-.91,15.89,15.89,0,0,0,5.14-2.57,11.81,11.81,0,0,0,3.39-4.11,12.24,12.24,0,0,0,1.22-5.52A11.06,11.06,0,0,0,315.19,473.57Z" transform="translate(-268.42 -67.46)"/><path class="a" d="M400.49,526.74h-7.66l-7.38-16.66H351.14l-7.48,16.66h-7.29l28.73-63.49h6.66Zm-32.15-55.12-14.41,32.15h28.73Z" transform="translate(-268.42 -67.46)"/><path class="a" d="M465.87,507.6a29.27,29.27,0,0,1-6.89,10,32.77,32.77,0,0,1-10.62,6.67,36.74,36.74,0,0,1-13.56,2.43H412.92v-63H434.8a37.36,37.36,0,0,1,13.56,2.38A32,32,0,0,1,459,472.7a29.49,29.49,0,0,1,6.89,10,31.64,31.64,0,0,1,2.43,12.43A32,32,0,0,1,465.87,507.6Zm-6.8-22.11a23.57,23.57,0,0,0-5.22-8,24.09,24.09,0,0,0-8.24-5.31,29,29,0,0,0-10.81-1.94H420v49.89H434.8a29.63,29.63,0,0,0,10.81-1.89,23.24,23.24,0,0,0,13.46-13.15,25.61,25.61,0,0,0,1.85-9.81A26.11,26.11,0,0,0,459.07,485.49Z" transform="translate(-268.42 -67.46)"/><path class="a" d="M491.09,463.7v63H484v-63Z" transform="translate(-268.42 -67.46)"/><path class="a" d="M568.72,507.6a32.79,32.79,0,0,1-6.58,10.4A31.33,31.33,0,0,1,552,525.16a34,34,0,0,1-26.26.05,31.25,31.25,0,0,1-10.13-7.07,31.58,31.58,0,0,1-6.53-10.36,34.08,34.08,0,0,1-2.29-12.47,33.55,33.55,0,0,1,2.34-12.48,32.7,32.7,0,0,1,6.57-10.4,31.37,31.37,0,0,1,10.18-7.16,34.07,34.07,0,0,1,26.25,0,31.09,31.09,0,0,1,10.13,7.07,31.44,31.44,0,0,1,6.53,10.35,34.14,34.14,0,0,1,2.3,12.48A33.5,33.5,0,0,1,568.72,507.6Zm-6.89-22.47a24.69,24.69,0,0,0-13.06-13.87,23.73,23.73,0,0,0-9.95-2.07,24,24,0,0,0-10,2,23.35,23.35,0,0,0-7.79,5.53A25.85,25.85,0,0,0,516,485a28.8,28.8,0,0,0,0,20.31,24.69,24.69,0,0,0,13.06,13.87,23.73,23.73,0,0,0,10,2.07,24.18,24.18,0,0,0,10-2,23.48,23.48,0,0,0,7.79-5.54,25.92,25.92,0,0,0,5.09-8.24,27.61,27.61,0,0,0,1.84-10.13A28,28,0,0,0,561.83,485.13Z" transform="translate(-268.42 -67.46)"/><path class="a" d="M273.36,397.83h14.1l11.48,18.64,11.49-18.64h14.09V446H311.25V418.33l-12.31,18.84h-.27l-12.24-18.7V446H273.36Z" transform="translate(-268.42 -67.46)"/><path class="a" d="M331.4,422v-.14c0-13.82,11.14-25,26-25s25.86,11.07,25.86,24.9v.13c0,13.83-11.15,25-26,25S331.4,435.86,331.4,422Zm38.24,0v-.14c0-6.94-5-13-12.38-13s-12.17,5.91-12.17,12.86v.13c0,7,5,13,12.31,13S369.64,429,369.64,422Z" transform="translate(-268.42 -67.46)"/><path class="a" d="M390.2,397.83H413c7.36,0,12.45,1.93,15.68,5.23,2.82,2.75,4.27,6.47,4.27,11.21v.14c0,7.36-3.92,12.24-9.91,14.78L434.49,446H419.08l-9.69-14.57h-5.85V446H390.2Zm22.14,23.11c4.54,0,7.16-2.2,7.16-5.71v-.13c0-3.79-2.75-5.71-7.22-5.71h-8.74v11.55Z" transform="translate(-268.42 -67.46)"/><path class="a" d="M439.65,397.83H453v36.45H476.3V446H439.65Z" transform="translate(-268.42 -67.46)"/><path class="a" d="M482,397.83h38.72v11.35H495.21v7.29h23.11V427H495.21v7.64h25.86V446H482Z" transform="translate(-268.42 -67.46)"/><path class="a" d="M541.77,428l-18.29-30.13h15.2l9.9,17.54,10-17.54h14.92l-18.29,29.92V446H541.77Z" transform="translate(-268.42 -67.46)"/><path class="b" d="M331.56,135.86h49l39.89,64.73,39.88-64.73h49V303.05h-46.1V207l-42.75,65.44h-1l-42.51-65v95.54H331.56Z" transform="translate(-268.42 -67.46)"/></svg>