<?xml version="1.0" encoding="UTF-8" standalone="no"?>
<svg width="166px" height="218px" viewBox="0 0 166 218" version="1.1" xmlns="http://www.w3.org/2000/svg" xmlns:xlink="http://www.w3.org/1999/xlink" xmlns:sketch="http://www.bohemiancoding.com/sketch/ns">
    <!-- Generator: sketchtool 3.4 (356) - http://www.bohemiancoding.com/sketch -->
    <title>Logo@0.5x</title>
    <desc>Created with sketchtool.</desc>
    <defs></defs>
    <g id="Resonance_Extra-Site" stroke="none" stroke-width="1" fill="none" fill-rule="evenodd" sketch:type="MSPage">
        <g id="Desktop-HD-Copy-51" sketch:type="MSArtboardGroup" transform="translate(-90.000000, -79.000000)" fill="#FFFFFF">
            <g id="Logo" sketch:type="MSLayerGroup" transform="translate(90.500000, 79.000000)">
                <path d="M6.36589092,182.513 L11.8327946,182.513 C12.2133359,182.513 14.1852314,182.513 15.2581397,181.959927 C15.7770595,181.683391 17.1954405,180.784648 17.645171,178.710152 C18.5105114,174.665336 14.9121931,174.665336 13.5279329,174.665336 L8.06150305,174.665336 L6.36589092,182.513 L6.36589092,182.513 Z M5.29345653,171.761705 L14.219826,171.761705 C15.5003023,171.761705 18.1294963,171.761705 19.7213244,172.936984 C21.3472733,174.112263 21.8320724,176.013923 21.4164626,178.018812 C21.0359214,179.782204 20.067271,181.33772 18.7180793,182.443866 C17.4030084,183.515917 16.2267901,183.861588 15.4311129,184.06899 C17.6797657,184.691196 18.5105114,185.762775 18.1991595,188.874281 C17.9219283,191.812953 17.7143604,193.956582 18.0949016,196.721945 L14.3927993,196.721945 C14.1852314,195.062728 14.4970572,192.020355 14.6700305,190.119168 C15.0159771,186.489156 14.3582047,185.451671 10.1717772,185.451671 L5.8123764,185.451671 L3.42487112,196.721945 L0,196.721945 L5.29345653,171.761705 L5.29345653,171.761705 Z" id="Fill-87" sketch:type="MSShapeGroup"></path>
                <path d="M35.4303496,186.297853 C35.8108909,184.638162 36.2265007,181.180985 32.2125726,181.180985 C30.1022984,181.180985 27.2650626,182.459965 26.4001962,186.297853 L35.4303496,186.297853 L35.4303496,186.297853 Z M25.7774923,188.579278 C24.9467466,192.174723 25.8466816,194.836858 29.4104053,194.836858 C31.5206794,194.836858 33.4584541,193.730713 34.2541313,191.241413 L37.506503,191.241413 C37.2297457,192.105589 36.7800152,193.522837 35.2573763,194.871425 C34.3233206,195.735601 32.2817619,197.18789 28.7877014,197.18789 C23.3207977,197.18789 21.4522123,193.799847 22.5943099,188.302741 C23.3207977,184.880131 24.6353947,182.045161 27.7839825,180.143974 C29.6871625,178.968221 31.762842,178.86452 32.766561,178.86452 C40.5513068,178.86452 38.924884,185.744307 38.2675855,188.579278 L25.7774923,188.579278 L25.7774923,188.579278 Z" id="Fill-88" sketch:type="MSShapeGroup"></path>
                <path d="M42.9325748,191.483382 C42.6212229,192.796929 42.8979801,194.629456 46.0465679,194.629456 C47.3962334,194.629456 48.4686678,194.387487 49.3335343,193.523311 C49.7832648,193.073466 50.1292114,192.485826 50.2329954,191.898187 C50.6135366,190.204402 49.4373182,189.893298 46.9806236,189.305185 C43.520684,188.475577 40.6493274,187.749669 41.4104098,184.119657 C42.0677083,180.939016 45.2854854,178.86452 49.2989396,178.86452 C51.4788769,178.86452 54.3848282,179.4872 55.0080059,181.561222 C55.2501685,182.529573 55.0771953,183.359182 54.904222,184.085089 L51.5826609,184.085089 C52.2399594,181.457521 50.0254274,181.250119 48.8492091,181.250119 C48.3648839,181.250119 45.3200801,181.250119 44.7665655,183.739419 C44.4552136,185.329503 45.9081893,185.70974 46.7730557,185.951709 C51.3404983,187.092895 52.3091487,187.369431 53.1394205,188.337308 C53.900503,189.236051 54.004287,190.446371 53.7621244,191.552516 C53.3469885,193.48827 51.9286075,195.147961 50.475158,195.943003 C48.7800197,196.876313 46.8768397,197.118756 45.0779175,197.118756 C41.5487885,197.118756 38.573174,195.666467 39.5072298,191.483382 L42.9325748,191.483382" id="Fill-89" sketch:type="MSShapeGroup"></path>
                <path d="M63.8729138,194.836858 C66.3296084,194.836858 69.5127908,193.073466 70.6198199,187.85337 C71.5538756,183.532017 70.0317107,181.250119 66.9869069,181.250119 C64.9107535,181.250119 61.2778406,182.56414 60.1016222,187.991638 C59.3405397,191.552516 60.1708115,194.836858 63.8729138,194.836858 L63.8729138,194.836858 Z M67.4712321,178.86452 C74.4257061,178.86452 74.840842,184.327059 74.0797595,187.957071 C72.9727305,193.038899 69.2014389,197.257024 63.2848046,197.257024 C57.5411436,197.257024 55.6038428,193.280868 56.6762772,188.19904 C57.5757383,183.912254 60.6551367,178.86452 67.4712321,178.86452 L67.4712321,178.86452 Z" id="Fill-90" sketch:type="MSShapeGroup"></path>
                <path d="M79.0175156,179.684185 L82.2698873,179.684185 L81.6817781,182.484115 C82.2352926,181.758207 84.0000941,179.338041 87.944359,179.338041 C89.5011186,179.338041 94.1026819,179.926154 92.9610582,185.249951 L90.469769,197.038731 L87.1482079,197.038731 L89.5011186,186.010426 C89.7432812,184.869714 89.8124705,183.832703 89.1897666,183.037661 C88.5324681,182.242146 87.4595599,181.861908 86.3525308,181.861908 C84.0000941,181.861908 81.4742102,183.556166 80.7131277,187.047911 L78.6023797,197.038731 L75.3500079,197.038731 L78.6023797,181.689073 L79.0175156,179.684185 Z" id="Fill-91" sketch:type="MSShapeGroup"></path>
                <path d="M105.31952,188.19904 C104.004923,188.19904 99.0574133,188.19904 98.2963308,191.725351 C98.0541682,192.831496 98.3309255,194.733157 101.236877,194.733157 C102.897894,194.733157 104.28168,194.076383 105.354115,192.866064 C106.323239,191.690784 106.565402,190.722907 107.153511,188.302741 C106.565402,188.233607 106.115671,188.19904 105.31952,188.19904 L105.31952,188.19904 Z M105.73513,196.738045 C105.665941,195.873869 105.769725,195.04426 105.977293,194.145517 C103.797355,197.014581 101.40985,197.291591 99.9568744,197.291591 C95.9780148,197.291591 94.2824027,195.04426 94.9055804,192.174723 C95.2169324,190.792041 96.1509881,188.579278 99.0228186,187.092895 C101.133093,186.055411 103.901139,185.951709 105.284926,185.951709 C106.115671,185.951709 106.634591,185.986276 107.637836,186.055411 C108.087567,183.912254 108.295135,182.978944 107.810809,182.217996 C107.361079,181.35382 105.977293,181.077284 105.042763,181.077284 C101.75627,181.077284 101.098498,183.324615 100.925525,184.015955 L97.6731531,184.015955 C97.984505,183.117213 98.3309255,181.906893 99.5763331,180.731614 C101.202282,179.279798 103.762761,178.86452 105.596751,178.86452 C108.122161,178.86452 110.648045,179.660035 111.20156,181.422954 C111.547506,182.459965 111.409128,183.290048 111.236154,184.085089 L109.333448,192.382125 C109.264259,192.658661 108.814055,194.975126 108.675676,196.738045 L105.73513,196.738045 L105.73513,196.738045 Z" id="Fill-92" sketch:type="MSShapeGroup"></path>
                <path d="M115.566535,181.689073 L115.98167,179.684185 L119.234042,179.684185 L118.645933,182.484115 C119.199447,181.758207 120.964249,179.338041 124.908514,179.338041 C126.465273,179.338041 131.067311,179.926154 129.925213,185.249951 L127.433924,197.038731 L124.112837,197.038731 L126.465273,186.010426 C126.707436,184.869714 126.776625,183.832703 126.153921,183.037661 C125.496623,182.242146 124.424189,181.861908 123.316686,181.861908 C120.964249,181.861908 118.438365,183.556166 117.677283,187.047911 L115.566535,197.038731 L112.314163,197.038731 L115.566535,181.689073" id="Fill-93" sketch:type="MSShapeGroup"></path>
                <path d="M143.214503,184.880131 C143.31876,184.085089 143.702619,181.250119 140.551188,181.250119 C136.05483,181.250119 134.947327,186.470688 134.67057,187.784236 C133.909487,191.345114 134.047866,194.664023 137.507806,194.664023 C140.275852,194.664023 141.660112,192.589527 142.077144,190.895743 L145.361267,190.895743 C144.460858,194.283785 141.314166,197.118756 137.023481,197.118756 C135.847262,197.118756 133.217594,196.876313 131.799213,194.871425 C131.003062,193.661579 130.380358,191.829052 131.141441,188.233607 C132.66408,181.00815 137.5424,178.86452 141.001392,178.86452 C142.14349,178.86452 144.702547,179.106963 145.882556,181.00815 C146.849311,182.494532 146.640795,183.912254 146.503365,184.880131 L143.214503,184.880131" id="Fill-94" sketch:type="MSShapeGroup"></path>
                <path d="M161.489609,186.297853 C161.868728,184.638162 162.28576,181.180985 158.271832,181.180985 C156.15824,181.180985 153.324322,182.459965 152.457086,186.297853 L161.489609,186.297853 L161.489609,186.297853 Z M151.836277,188.579278 C151.002214,192.174723 151.902623,194.836858 155.466347,194.836858 C157.579938,194.836858 159.518187,193.730713 160.309599,191.241413 L163.565288,191.241413 C163.285687,192.105589 162.835483,193.522837 161.314266,194.871425 C160.380684,195.735601 158.338177,197.18789 154.845539,197.18789 C149.376739,197.18789 147.509576,193.799847 148.651673,188.302741 C149.376739,184.880131 150.69418,182.045161 153.840872,180.143974 C155.745948,178.968221 157.821627,178.86452 158.821555,178.86452 C166.607722,178.86452 164.982247,185.744307 164.323527,188.579278 L151.836277,188.579278 L151.836277,188.579278 Z" id="Fill-95" sketch:type="MSShapeGroup"></path>
                <path d="M98.343134,202.540572 L107.491762,202.540572 L107.127334,204.257085 L99.9998863,204.257085 L99.0492441,208.795785 L105.83501,208.795785 L105.472477,210.491937 L98.6871849,210.491937 L97.6574015,215.334163 L104.947396,215.334163 L104.563064,217.109393 L95.2537836,217.109393 L98.343134,202.540572" id="Fill-96" sketch:type="MSShapeGroup"></path>
                <path d="M113.379963,202.540572 L116.127631,208.151322 L121.256171,202.540572 L123.698649,202.540572 L117.035149,209.522166 L120.871839,217.109393 L118.327473,217.109393 L115.319633,210.85418 L109.543273,217.109393 L107.101269,217.109393 L114.368991,209.483337 L110.795315,202.540572 L113.379963,202.540572" id="Fill-97" sketch:type="MSShapeGroup"></path>
                <path d="M126.795107,217.109393 L129.522399,204.257085 L124.635548,204.257085 L124.998081,202.540572 L136.771638,202.540572 L136.407683,204.257085 L131.520832,204.257085 L128.795911,217.109393 L126.795107,217.109393" id="Fill-98" sketch:type="MSShapeGroup"></path>
                <path d="M139.725453,208.816146 L142.919061,208.816146 C143.137055,208.816146 144.288631,208.816146 144.914178,208.493205 C145.217473,208.332207 146.046797,207.807546 146.307442,206.5977 C146.814515,204.236724 144.71514,204.236724 143.904772,204.236724 L140.715429,204.236724 L139.725453,208.816146 L139.725453,208.816146 Z M139.098484,202.540572 L144.307587,202.540572 C145.056348,202.540572 146.591782,202.540572 147.520625,203.228124 C148.468424,203.913309 148.752763,205.023716 148.511074,206.192839 C148.288342,207.221801 147.719662,208.130961 146.932989,208.775423 C146.165272,209.401891 145.482857,209.603138 145.013697,209.725306 C146.326398,210.08755 146.814515,210.713545 146.629694,212.529498 C146.468568,214.244118 146.350093,215.494687 146.568087,217.109393 L144.411844,217.109393 C144.288631,216.141516 144.473451,214.366286 144.57297,213.255879 C144.772008,211.136873 144.38815,210.530766 141.947567,210.530766 L139.40178,210.530766 L138.009937,217.109393 L136.009134,217.109393 L139.098484,202.540572 L139.098484,202.540572 Z" id="Fill-99" sketch:type="MSShapeGroup"></path>
                <path d="M153.785101,211.681895 L159.296551,211.681895 L158.12602,204.539778 L153.785101,211.681895 L153.785101,211.681895 Z M157.56208,202.540572 L159.723061,202.540572 L162.528545,217.109393 L160.329652,217.109393 L159.561935,213.31649 L152.794651,213.31649 L150.410937,217.109393 L148.330519,217.109393 L157.56208,202.540572 L157.56208,202.540572 Z" id="Fill-100" sketch:type="MSShapeGroup"></path>
                <path d="M125.744946,21.8321607 L109.812448,81.0241838 L86.5008613,99.4020086 L94.5206612,160.731032 L74.0970179,160.731032 L68.3230273,113.718917 C67.5742662,109.979521 67.0397077,104.637257 66.6122504,99.0814349 C66.5051492,98.5468296 66.6122504,97.9061557 66.5051492,97.372024 L64.4735423,97.372024 C64.4735423,97.372024 64.4735423,97.372024 50.1447194,97.372024 L48.1126387,97.372024 L47.5780802,99.4020086 C47.5780802,99.4020086 47.5780802,99.4020086 36.0296252,142.353681 L31.1110231,160.731032 L10.6873797,160.731032 L15.6059818,142.353681 L16.1405404,140.323223 L32.0730389,81.0241838 L54.528763,81.0241838 L87.2496224,81.0241838 C87.2496224,81.0241838 87.4932067,81.0180281 87.8254102,80.938003 L89.5598821,79.64387 C89.6627183,79.4539881 89.7513375,79.2404301 89.8162617,78.9941992 L104.679169,23.8621454 C105.214202,21.8321607 103.716679,19.8017025 103.716679,19.8017025 L48.5405699,19.8017025 L52.9246134,3.45480945 L118.366332,3.45480945 L124.990972,18.0937122 L125.705139,19.7983879 C125.863895,20.4205945 125.931189,21.1237733 125.744946,21.8321607 L125.744946,21.8321607 Z M128.029615,17.1840783 C127.935309,16.9927758 127.842899,16.8152054 127.759493,16.6674668 L120.373296,0.347090917 L50.5375821,0.347090917 L44.4863604,22.9103681 L101.690759,22.9103681 C101.690759,22.9629289 101.686494,23.0112281 101.676542,23.0519509 L86.9449051,77.7156924 L86.6776258,77.9159918 L29.6879031,77.9159918 L6.63459189,163.840171 L33.4994762,163.840171 L50.5091481,100.481163 L63.7195684,100.481163 L65.2346248,114.097734 L71.34461,163.840171 L98.0654289,163.840171 L89.81484,100.750123 L112.547795,82.8273519 L128.753734,22.6229408 C128.863678,22.198666 128.930972,21.7630266 128.956089,21.319811 L128.029615,17.1840783 L128.029615,17.1840783 Z" id="Fill-103" sketch:type="MSShapeGroup"></path>
            </g>
        </g>
    </g>
</svg>