<svg xmlns="http://www.w3.org/2000/svg" viewBox="0 0 200 200"><path fill="#a7062e" d="M196.6 5L3 29.1v137.2L160.1 147l18.4 42.8z"/><path d="M135.2 79.7l.9-.1c12.5-1.5 15.2-4.5 15.2-15.4v-7.7c0-8.3-3.2-9.1-8.4-10.3l-4.8-1.1c-4.6-1.1-5.3-1.3-5.3-4.9v-3.3c0-2.1.9-2.6 2.4-2.7l.7-.1c1.6-.2 2.4 0 2.4 2.2v6.3l12.8-1.6v-5.6c0-10.9-2.7-13.2-15.2-11.6l-.7.1c-12.5 1.5-15.2 4.5-15.2 15.4v6.6c0 8.1 3.6 9.2 8.9 10.7l5.4 1.2c3.1 1 4.2.8 4.2 3.8v5.1c0 2.1-.8 2.5-2.4 2.7l-.9.1c-1.6.2-2.4-.1-2.4-2.2v-6.4L120 62.4v5.7c0 10.9 2.7 13.2 15.2 11.6zm-54-4.4L67.5 77V64.8l12.2-1.5V52.6l-12.2 1.5V43.2l13.7-1.7V30.7L54.9 34v55.3l26.2-3.2V75.3zM38.8 35.9l-6 42.1h-.2l-5.8-40.6L14.1 39l8.8 54.2 19.8-2.4 8.7-56.4-12.6 1.5zm-10.7 61l-12.6 1.5v55.3l26.3-3.2v-10.7l-13.7 1.7V96.9zm75.7-30.6v17l12.6-1.6V66.2c0-7.5-1.6-9.6-7.1-9.6 5.3-1 7.1-3.1 7.1-10.7v-6.2c0-10.7-2.6-12.9-14.9-11.4l-16.4 2v55.3L97.8 84V63.4l3.7-.5c1.5-.1 2.3 1.4 2.3 3.4zm-6-27.3l3.7-.5c1.4-.2 2.3 0 2.3 1.9v10.2c0 2-.8 2.4-2.2 2.6l-3.8.5V39zm62.3 52.4V80.7l-26.2 3.2v55.3l26.2-3.2v-10.7l-13.7 1.7v-12.2l12.2-1.5v-10.7l-12.2 1.5v-11l13.7-1.7zM115 86.2l-16.4 2v55.3l12.6-1.6v-20.6l3.7-.5c1.5-.1 2.3 1.4 2.3 3.4v17l12.6-1.6V124c0-7.5-1.6-9.6-7.1-9.6 5.3-1 7.1-3.1 7.1-10.7v-6.2c0-10.6-2.6-12.8-14.8-11.3zm2.2 22.4c0 2-.8 2.4-2.2 2.6l-3.8.5V97l3.7-.5c1.4-.2 2.3 0 2.3 1.9v10.2zM46.3 150l12.6-1.5V93.1l-12.6 1.5V150zm41.2-33.3c5.3-1.2 6.8-3.6 6.8-10.7v-3.9c0-10.9-2.6-13-14.9-11.5l-15.7 1.9v55.3l15.8-1.9c12.3-1.5 14.9-2.5 14.9-15.2v-5c0-7.3-1.5-9.2-6.9-9zm-11.2-15.4l3.1-.4c1.5-.2 2.3.1 2.3 2.1v7.7c0 2-.7 2.5-2.2 2.6l-3.2.4v-12.4zm5.5 31.7c0 2.1-.9 2.5-2.4 2.7l-3.2.4v-13l3.1-.4c1.5-.2 2.4.1 2.4 2.1v8.2z" fill="#fff"/></svg>